<svg width="149" height="76" viewBox="0 0 149 76" fill="none" xmlns="http://www.w3.org/2000/svg">
<path d="M1.876 67V55.24C1.876 54.7547 1.96933 54.4467 2.156 54.316C2.34267 54.1853 2.67867 54.12 3.164 54.12H5.6V59.328H12.684V54.12H16.436V65.74C16.436 66.244 16.352 66.58 16.184 66.748C16.0347 66.916 15.68 67 15.12 67H12.684V61.316H5.6V67H1.876ZM26.3003 67.14C25.0683 67.14 24.0696 67.0933 23.3043 67C22.539 66.9253 21.951 66.7667 21.5403 66.524C21.1296 66.2627 20.8496 65.908 20.7003 65.46C20.551 65.012 20.4763 64.4427 20.4763 63.752C20.4763 62.8 20.579 62.072 20.7843 61.568C20.9896 61.064 21.335 60.728 21.8203 60.56C22.3243 60.3733 22.9963 60.28 23.8363 60.28C24.303 60.28 24.8256 60.2893 25.4043 60.308C26.0016 60.308 26.5803 60.3173 27.1403 60.336C27.7003 60.3547 28.1856 60.392 28.5963 60.448C29.0256 60.4853 29.315 60.5227 29.4643 60.56C29.4643 59.888 29.4083 59.356 29.2963 58.964C29.1843 58.572 28.9976 58.2733 28.7363 58.068C28.475 57.8627 28.139 57.732 27.7283 57.676C27.3363 57.62 26.8603 57.592 26.3003 57.592C25.6656 57.592 25.0216 57.6107 24.3683 57.648C23.7336 57.6667 23.127 57.7133 22.5483 57.788C21.9883 57.844 21.4936 57.928 21.0643 58.04V57.396C21.0643 56.9293 21.1763 56.5933 21.4003 56.388C21.6243 56.164 21.9136 56.0147 22.2683 55.94C22.679 55.8467 23.2763 55.7813 24.0603 55.744C24.863 55.7067 25.7123 55.688 26.6083 55.688C27.7656 55.688 28.7363 55.744 29.5203 55.856C30.3043 55.968 30.9296 56.192 31.3963 56.528C31.8816 56.864 32.227 57.3587 32.4323 58.012C32.6376 58.6467 32.7403 59.5053 32.7403 60.588V66.244C32.5163 66.5613 31.863 66.7947 30.7803 66.944C29.7163 67.0747 28.223 67.14 26.3003 67.14ZM26.2723 65.684C26.907 65.684 27.4296 65.6747 27.8403 65.656C28.2696 65.6187 28.615 65.5627 28.8763 65.488C29.1376 65.4133 29.3336 65.32 29.4643 65.208V61.736C29.2776 61.68 28.979 61.6333 28.5683 61.596C28.1763 61.54 27.775 61.5027 27.3643 61.484C26.9536 61.4467 26.6083 61.428 26.3283 61.428C25.7683 61.428 25.311 61.4747 24.9563 61.568C24.6016 61.6427 24.3403 61.8293 24.1723 62.128C24.023 62.4267 23.9483 62.8933 23.9483 63.528C23.9483 64.032 24.0043 64.452 24.1163 64.788C24.2283 65.1053 24.4523 65.3387 24.7883 65.488C25.1243 65.6187 25.619 65.684 26.2723 65.684ZM39.8138 67H37.4338C37.0791 67 36.8178 66.916 36.6498 66.748C36.4818 66.5613 36.3978 66.2067 36.3978 65.684V56.388C36.8831 56.2573 37.5738 56.1173 38.4698 55.968C39.3845 55.8187 40.4298 55.744 41.6058 55.744C42.8191 55.744 43.7711 55.8187 44.4618 55.968C45.1525 56.1173 45.6565 56.332 45.9738 56.612C46.3098 56.892 46.5245 57.2467 46.6178 57.676C46.7111 58.1053 46.7578 58.6187 46.7578 59.216H43.5098V58.824C43.4911 58.376 43.3885 58.0493 43.2018 57.844C43.0151 57.6387 42.7818 57.5173 42.5018 57.48C42.2218 57.424 41.9418 57.396 41.6618 57.396C41.2511 57.396 40.8778 57.4427 40.5418 57.536C40.2245 57.6107 39.9818 57.7227 39.8138 57.872V67ZM55.5912 67.112C54.3965 67.112 53.4165 67.0467 52.6512 66.916C51.8858 66.7853 51.2978 66.5333 50.8872 66.16C50.4765 65.7867 50.1872 65.236 50.0192 64.508C49.8698 63.78 49.7952 62.8093 49.7952 61.596L49.7672 52.86H53.1272V55.912C53.2205 55.912 53.3885 55.9027 53.6312 55.884C53.8925 55.8653 54.1912 55.856 54.5272 55.856C54.8818 55.8373 55.2365 55.828 55.5912 55.828C55.9458 55.8093 56.2725 55.8 56.5712 55.8C57.9712 55.8 59.0538 55.9773 59.8192 56.332C60.5845 56.6867 61.1165 57.284 61.4152 58.124C61.7325 58.9453 61.8912 60.056 61.8912 61.456C61.8912 62.7813 61.7605 63.8267 61.4992 64.592C61.2378 65.3387 60.8458 65.8987 60.3232 66.272C59.8005 66.6267 59.1378 66.86 58.3352 66.972C57.5512 67.0653 56.6365 67.112 55.5912 67.112ZM55.6192 65.264C56.4032 65.264 56.9912 65.18 57.3832 65.012C57.7938 64.8253 58.0738 64.452 58.2232 63.892C58.3912 63.332 58.4752 62.4733 58.4752 61.316C58.4752 60.3827 58.3818 59.6547 58.1952 59.132C58.0085 58.6093 57.7098 58.236 57.2992 58.012C56.9072 57.788 56.3752 57.676 55.7032 57.676C55.5165 57.676 55.2925 57.676 55.0312 57.676C54.7698 57.676 54.5085 57.6853 54.2472 57.704C53.9858 57.704 53.7525 57.7133 53.5472 57.732C53.3605 57.732 53.2298 57.732 53.1552 57.732V62.044C53.1552 62.7347 53.1832 63.2947 53.2392 63.724C53.2952 64.1533 53.4072 64.48 53.5752 64.704C53.7432 64.928 53.9858 65.0773 54.3032 65.152C54.6392 65.2267 55.0778 65.264 55.6192 65.264ZM71.2587 67.168C70.2694 67.168 69.392 67.1027 68.6267 66.972C67.8614 66.8227 67.208 66.552 66.6667 66.16C66.144 65.7493 65.7427 65.1613 65.4627 64.396C65.1827 63.6307 65.0427 62.6413 65.0427 61.428C65.0427 60.2147 65.1827 59.2253 65.4627 58.46C65.7427 57.6947 66.144 57.116 66.6667 56.724C67.208 56.3133 67.8614 56.0427 68.6267 55.912C69.392 55.7627 70.2694 55.688 71.2587 55.688C72.2667 55.688 73.144 55.7627 73.8907 55.912C74.656 56.0427 75.3 56.3133 75.8227 56.724C76.3454 57.116 76.7374 57.6947 76.9987 58.46C77.2787 59.2253 77.4187 60.2147 77.4187 61.428C77.4187 62.66 77.2787 63.6587 76.9987 64.424C76.7374 65.1707 76.3454 65.7493 75.8227 66.16C75.3 66.552 74.656 66.8227 73.8907 66.972C73.1254 67.1027 72.248 67.168 71.2587 67.168ZM71.2587 65.46C71.856 65.46 72.3507 65.3573 72.7427 65.152C73.1534 64.9467 73.4614 64.5547 73.6667 63.976C73.872 63.3973 73.9747 62.548 73.9747 61.428C73.9747 60.308 73.872 59.4587 73.6667 58.88C73.4614 58.3013 73.1534 57.9093 72.7427 57.704C72.3507 57.4987 71.856 57.396 71.2587 57.396C70.68 57.396 70.1854 57.4987 69.7747 57.704C69.364 57.9093 69.0467 58.3013 68.8227 58.88C68.5987 59.4587 68.4867 60.308 68.4867 61.428C68.4867 62.548 68.5987 63.3973 68.8227 63.976C69.0467 64.5547 69.364 64.9467 69.7747 65.152C70.1854 65.3573 70.68 65.46 71.2587 65.46ZM84.3808 67H82.0008C81.6462 67 81.3848 66.916 81.2168 66.748C81.0488 66.5613 80.9648 66.2067 80.9648 65.684V56.388C81.4502 56.2573 82.1408 56.1173 83.0368 55.968C83.9515 55.8187 84.9968 55.744 86.1728 55.744C87.3862 55.744 88.3382 55.8187 89.0288 55.968C89.7195 56.1173 90.2235 56.332 90.5408 56.612C90.8768 56.892 91.0915 57.2467 91.1848 57.676C91.2782 58.1053 91.3248 58.6187 91.3248 59.216H88.0768V58.824C88.0582 58.376 87.9555 58.0493 87.7688 57.844C87.5822 57.6387 87.3488 57.5173 87.0688 57.48C86.7888 57.424 86.5088 57.396 86.2288 57.396C85.8182 57.396 85.4448 57.4427 85.1088 57.536C84.7915 57.6107 84.5488 57.7227 84.3808 57.872V67ZM98.2822 67C97.9649 67 97.6942 66.9627 97.4702 66.888C97.2462 66.8133 97.0502 66.6733 96.8822 66.468C96.7142 66.2627 96.5462 65.9547 96.3782 65.544L92.8222 55.8H96.3502L98.4782 62.38C98.6089 62.7533 98.7395 63.0147 98.8702 63.164C99.0195 63.3133 99.2715 63.388 99.6262 63.388C99.9622 62.268 100.289 61.1573 100.606 60.056C100.924 58.936 101.25 57.8253 101.586 56.724C101.68 56.444 101.81 56.2293 101.978 56.08C102.146 55.912 102.408 55.828 102.762 55.828H104.106L100.13 67H98.2822ZM109.741 67.112C108.64 67.112 107.875 66.8787 107.445 66.412C107.035 65.9267 106.829 65.1707 106.829 64.144V55.828H110.245V63.976C110.245 64.6293 110.329 65.0867 110.497 65.348C110.665 65.5907 110.964 65.712 111.393 65.712C111.599 65.712 111.795 65.6933 111.981 65.656C112.168 65.6187 112.289 65.5907 112.345 65.572V66.86C112.271 66.8787 112.14 66.9067 111.953 66.944C111.767 66.9813 111.496 67.0187 111.141 67.056C110.787 67.0933 110.32 67.112 109.741 67.112ZM108.565 54.372C108.024 54.372 107.632 54.3067 107.389 54.176C107.147 54.0267 107.025 53.756 107.025 53.364C107.025 52.972 107.147 52.7013 107.389 52.552C107.651 52.4027 108.052 52.328 108.593 52.328C109.135 52.3467 109.517 52.4307 109.741 52.58C109.984 52.7107 110.096 52.972 110.077 53.364C110.077 53.756 109.965 54.0267 109.741 54.176C109.517 54.3067 109.125 54.372 108.565 54.372ZM120.802 67.168C119.57 67.168 118.553 67.0933 117.75 66.944C116.948 66.776 116.313 66.496 115.846 66.104C115.38 65.712 115.044 65.152 114.838 64.424C114.633 63.696 114.53 62.7627 114.53 61.624C114.53 60.2053 114.717 59.0667 115.09 58.208C115.482 57.3493 116.154 56.724 117.106 56.332C118.077 55.94 119.421 55.744 121.138 55.744C122.482 55.744 123.556 55.8933 124.358 56.192C125.161 56.4907 125.74 56.9667 126.094 57.62C126.449 58.2547 126.626 59.076 126.626 60.084V62.044H118.786C118.786 61.708 118.861 61.428 119.01 61.204C119.178 60.9613 119.468 60.84 119.878 60.84H123.574V60.168C123.556 59.272 123.36 58.6093 122.986 58.18C122.632 57.7507 121.978 57.536 121.026 57.536C120.224 57.536 119.598 57.6573 119.15 57.9C118.721 58.1427 118.413 58.5533 118.226 59.132C118.058 59.7107 117.974 60.5227 117.974 61.568C117.974 62.576 118.077 63.3413 118.282 63.864C118.488 64.3867 118.842 64.7413 119.346 64.928C119.869 65.096 120.588 65.18 121.502 65.18C121.838 65.18 122.258 65.1707 122.762 65.152C123.285 65.1333 123.808 65.1147 124.33 65.096C124.872 65.0587 125.348 65.0213 125.758 64.984C126.169 64.928 126.43 64.8813 126.543 64.844V65.292C126.543 65.516 126.496 65.7587 126.402 66.02C126.328 66.2627 126.15 66.4587 125.87 66.608C125.516 66.832 124.918 66.9813 124.078 67.056C123.257 67.1307 122.165 67.168 120.802 67.168ZM134.496 67.14C133.376 67.14 132.462 67.0467 131.752 66.86C131.062 66.6733 130.548 66.3 130.212 65.74C129.895 65.18 129.736 64.3493 129.736 63.248V57.228C129.736 56.668 129.811 56.2947 129.96 56.108C130.128 55.9213 130.446 55.828 130.912 55.828H133.152V63.248C133.152 64.0507 133.302 64.5733 133.6 64.816C133.918 65.0587 134.394 65.18 135.028 65.18C135.719 65.18 136.214 65.0587 136.512 64.816C136.83 64.5547 136.988 64.1253 136.988 63.528V55.828H140.404V63.528C140.404 64.1253 140.554 64.5547 140.852 64.816C141.17 65.0587 141.655 65.18 142.308 65.18C142.999 65.18 143.494 65.0587 143.792 64.816C144.091 64.5733 144.24 64.0507 144.24 63.248V55.828H146.396C146.919 55.828 147.255 55.9213 147.404 56.108C147.554 56.276 147.628 56.6493 147.628 57.228V63.248C147.628 64.312 147.47 65.124 147.152 65.684C146.835 66.2253 146.312 66.5987 145.584 66.804C144.875 67.0093 143.914 67.112 142.7 67.112C141.487 67.112 140.516 66.9253 139.788 66.552C139.079 66.16 138.65 65.516 138.5 64.62H138.892C138.762 65.2547 138.528 65.7587 138.192 66.132C137.856 66.4867 137.38 66.748 136.764 66.916C136.167 67.0653 135.411 67.14 134.496 67.14Z" fill="#5CD85A"/>
<path d="M51.9668 6.18006C50.3058 8.85121 50.0419 12.3451 50 18.5516H55.4787C55.5164 17.2991 55.6009 16.3912 55.7905 15.578C56.9227 10.7222 60.7142 6.93065 65.57 5.79843C67.0372 5.45635 68.8125 5.45635 72.3631 5.45635H75.6369C79.1875 5.45635 80.9628 5.45635 82.43 5.79843C87.2858 6.93065 91.0773 10.7222 92.2095 15.578C92.3991 16.3912 92.4836 17.2991 92.5213 18.5516H98C97.9581 12.3451 97.6942 8.85121 96.0332 6.18006C94.9725 4.47431 93.5336 3.03543 91.8279 1.97473C88.6522 0 84.3138 0 75.6369 0H72.3631C63.6862 0 59.3478 0 56.1721 1.97473C54.4664 3.03543 53.0275 4.47431 51.9668 6.18006Z" fill="#5CD85A"/>
<path d="M51.9668 38.562C50.3058 35.8908 50.0419 32.3969 50 26.1905H55.4787C55.5164 27.4429 55.6009 28.3508 55.7905 29.1641C56.9227 34.0199 60.7142 37.8114 65.57 38.9436C67.0372 39.2857 68.8125 39.2857 72.3631 39.2857H75.6369C79.1875 39.2857 80.9628 39.2857 82.43 38.9436C87.2858 37.8114 91.0773 34.0199 92.2095 29.1641C92.3991 28.3508 92.4836 27.4429 92.5213 26.1905H98C97.9581 32.3969 97.6942 35.8908 96.0332 38.562C94.9725 40.2677 93.5336 41.7066 91.8279 42.7673C88.6522 44.742 84.3138 44.742 75.6369 44.742H72.3631C63.6862 44.742 59.3478 44.742 56.1721 42.7673C54.4664 41.7066 53.0275 40.2677 51.9668 38.562Z" fill="#5CD85A"/>
<path fill-rule="evenodd" clip-rule="evenodd" d="M72.545 32.7381V26.8324L67.6796 27.3261L68.5911 28.4051L66.1239 27.9878L68.5911 30.9086L64.4791 30.4913V33.8293H62.8343V30.4913L58.7222 30.9086L61.1895 27.9878L58.7222 28.4051L61.1895 25.4843L58.7222 25.9016C60.9817 23.6353 62.0857 22.2774 63.6567 19.6428C64.3754 20.8668 64.9943 21.8129 65.6589 22.6808L69.6349 17.9738L65.2698 18.7121C69.2673 14.7025 71.2206 12.2999 74 7.63888C76.8366 12.4693 78.794 14.8532 82.7302 18.7121L78.3651 17.9738L82.3517 22.6933C83.0384 21.8053 83.6647 20.8604 84.3908 19.6428C85.994 22.3731 87.1004 23.7205 89.3252 25.9016L86.858 25.4843L89.3252 28.4051L86.858 27.9878L89.3252 30.9086L85.2132 30.4913V33.8293H83.5684V30.4913L79.4563 30.9086L81.9236 27.9878L79.4563 28.4051L80.3641 27.3305L75.455 26.8324V32.7381H72.545ZM81.4457 26.05L81.9236 25.4843L81.0873 25.6258L81.4457 26.05ZM80.4556 24.8779C81.0723 24.2293 81.5977 23.6377 82.0845 23.0321L78.3651 22.4031L80.4556 24.8779ZM66.9186 25.6187L66.578 26.022L66.1239 25.4843L66.9186 25.6187ZM69.6349 22.4031L67.5572 24.8628C66.9451 24.2284 66.4214 23.6422 65.9317 23.0294L69.6349 22.4031Z" fill="#5CD85A"/>
</svg>
