<svg width="208" height="45" viewBox="0 0 208 45" fill="none" xmlns="http://www.w3.org/2000/svg">
<path d="M1.96682 6.18006C0.305784 8.85121 0.0419172 12.3451 0 18.5516H5.47872C5.51638 17.2991 5.6009 16.3912 5.79052 15.578C6.92273 10.7222 10.7142 6.93065 15.57 5.79843C17.0372 5.45635 18.8125 5.45635 22.3631 5.45635H25.6369C29.1875 5.45635 30.9628 5.45635 32.43 5.79843C37.2858 6.93065 41.0773 10.7222 42.2095 15.578C42.3991 16.3912 42.4836 17.2991 42.5213 18.5516H48C47.9581 12.3451 47.6942 8.85121 46.0332 6.18006C44.9725 4.47431 43.5336 3.03543 41.8279 1.97473C38.6522 0 34.3138 0 25.6369 0H22.3631C13.6862 0 9.34777 0 6.17214 1.97473C4.4664 3.03543 3.02752 4.47431 1.96682 6.18006Z" fill="#5CD85A"/>
<path d="M1.96682 38.562C0.305784 35.8908 0.0419172 32.3969 0 26.1905H5.47872C5.51638 27.4429 5.6009 28.3508 5.79052 29.1641C6.92273 34.0199 10.7142 37.8114 15.57 38.9436C17.0372 39.2857 18.8125 39.2857 22.3631 39.2857H25.6369C29.1875 39.2857 30.9628 39.2857 32.43 38.9436C37.2858 37.8114 41.0773 34.0199 42.2095 29.1641C42.3991 28.3508 42.4836 27.4429 42.5213 26.1905H48C47.9581 32.3969 47.6942 35.8908 46.0332 38.562C44.9725 40.2677 43.5336 41.7066 41.8279 42.7673C38.6522 44.742 34.3138 44.742 25.6369 44.742H22.3631C13.6862 44.742 9.34777 44.742 6.17214 42.7673C4.4664 41.7066 3.02752 40.2677 1.96682 38.562Z" fill="#5CD85A"/>
<path fill-rule="evenodd" clip-rule="evenodd" d="M22.545 32.7381V26.8324L17.6796 27.3261L18.5911 28.4051L16.1239 27.9878L18.5911 30.9086L14.4791 30.4913V33.8293H12.8343V30.4913L8.72223 30.9086L11.1895 27.9878L8.72223 28.4051L11.1895 25.4843L8.72223 25.9016C10.9817 23.6353 12.0857 22.2774 13.6567 19.6428C14.3754 20.8668 14.9943 21.8129 15.6589 22.6808L19.6349 17.9738L15.2698 18.7121C19.2673 14.7025 21.2206 12.2999 24 7.63888C26.8366 12.4693 28.794 14.8532 32.7302 18.7121L28.3651 17.9738L32.3517 22.6933C33.0384 21.8053 33.6647 20.8604 34.3908 19.6428C35.994 22.3731 37.1004 23.7205 39.3252 25.9016L36.858 25.4843L39.3252 28.4051L36.858 27.9878L39.3252 30.9086L35.2132 30.4913V33.8293H33.5684V30.4913L29.4563 30.9086L31.9236 27.9878L29.4563 28.4051L30.3641 27.3305L25.455 26.8324V32.7381H22.545ZM31.4457 26.05L31.9236 25.4843L31.0873 25.6258L31.4457 26.05ZM30.4556 24.8779C31.0723 24.2293 31.5977 23.6377 32.0845 23.0321L28.3651 22.4031L30.4556 24.8779ZM16.9186 25.6187L16.578 26.022L16.1239 25.4843L16.9186 25.6187ZM19.6349 22.4031L17.5572 24.8628C16.9451 24.2284 16.4214 23.6422 15.9317 23.0294L19.6349 22.4031Z" fill="#5CD85A"/>
<path d="M60.876 30V18.24C60.876 17.7547 60.9693 17.4467 61.156 17.316C61.3427 17.1853 61.6787 17.12 62.164 17.12H64.6V22.328H71.684V17.12H75.436V28.74C75.436 29.244 75.352 29.58 75.184 29.748C75.0347 29.916 74.68 30 74.12 30H71.684V24.316H64.6V30H60.876ZM85.3003 30.14C84.0683 30.14 83.0696 30.0933 82.3043 30C81.539 29.9253 80.951 29.7667 80.5403 29.524C80.1296 29.2627 79.8496 28.908 79.7003 28.46C79.551 28.012 79.4763 27.4427 79.4763 26.752C79.4763 25.8 79.579 25.072 79.7843 24.568C79.9896 24.064 80.335 23.728 80.8203 23.56C81.3243 23.3733 81.9963 23.28 82.8363 23.28C83.303 23.28 83.8256 23.2893 84.4043 23.308C85.0016 23.308 85.5803 23.3173 86.1403 23.336C86.7003 23.3547 87.1856 23.392 87.5963 23.448C88.0256 23.4853 88.315 23.5227 88.4643 23.56C88.4643 22.888 88.4083 22.356 88.2963 21.964C88.1843 21.572 87.9976 21.2733 87.7363 21.068C87.475 20.8627 87.139 20.732 86.7283 20.676C86.3363 20.62 85.8603 20.592 85.3003 20.592C84.6656 20.592 84.0216 20.6107 83.3683 20.648C82.7336 20.6667 82.127 20.7133 81.5483 20.788C80.9883 20.844 80.4936 20.928 80.0643 21.04V20.396C80.0643 19.9293 80.1763 19.5933 80.4003 19.388C80.6243 19.164 80.9136 19.0147 81.2683 18.94C81.679 18.8467 82.2763 18.7813 83.0603 18.744C83.863 18.7067 84.7123 18.688 85.6083 18.688C86.7656 18.688 87.7363 18.744 88.5203 18.856C89.3043 18.968 89.9296 19.192 90.3963 19.528C90.8816 19.864 91.227 20.3587 91.4323 21.012C91.6376 21.6467 91.7403 22.5053 91.7403 23.588V29.244C91.5163 29.5613 90.863 29.7947 89.7803 29.944C88.7163 30.0747 87.223 30.14 85.3003 30.14ZM85.2723 28.684C85.907 28.684 86.4296 28.6747 86.8403 28.656C87.2696 28.6187 87.615 28.5627 87.8763 28.488C88.1376 28.4133 88.3336 28.32 88.4643 28.208V24.736C88.2776 24.68 87.979 24.6333 87.5683 24.596C87.1763 24.54 86.775 24.5027 86.3643 24.484C85.9536 24.4467 85.6083 24.428 85.3283 24.428C84.7683 24.428 84.311 24.4747 83.9563 24.568C83.6016 24.6427 83.3403 24.8293 83.1723 25.128C83.023 25.4267 82.9483 25.8933 82.9483 26.528C82.9483 27.032 83.0043 27.452 83.1163 27.788C83.2283 28.1053 83.4523 28.3387 83.7883 28.488C84.1243 28.6187 84.619 28.684 85.2723 28.684ZM98.8138 30H96.4338C96.0791 30 95.8178 29.916 95.6498 29.748C95.4818 29.5613 95.3978 29.2067 95.3978 28.684V19.388C95.8831 19.2573 96.5738 19.1173 97.4698 18.968C98.3845 18.8187 99.4298 18.744 100.606 18.744C101.819 18.744 102.771 18.8187 103.462 18.968C104.152 19.1173 104.656 19.332 104.974 19.612C105.31 19.892 105.524 20.2467 105.618 20.676C105.711 21.1053 105.758 21.6187 105.758 22.216H102.51V21.824C102.491 21.376 102.388 21.0493 102.202 20.844C102.015 20.6387 101.782 20.5173 101.502 20.48C101.222 20.424 100.942 20.396 100.662 20.396C100.251 20.396 99.8778 20.4427 99.5418 20.536C99.2245 20.6107 98.9818 20.7227 98.8138 20.872V30ZM114.591 30.112C113.396 30.112 112.416 30.0467 111.651 29.916C110.886 29.7853 110.298 29.5333 109.887 29.16C109.476 28.7867 109.187 28.236 109.019 27.508C108.87 26.78 108.795 25.8093 108.795 24.596L108.767 15.86H112.127V18.912C112.22 18.912 112.388 18.9027 112.631 18.884C112.892 18.8653 113.191 18.856 113.527 18.856C113.882 18.8373 114.236 18.828 114.591 18.828C114.946 18.8093 115.272 18.8 115.571 18.8C116.971 18.8 118.054 18.9773 118.819 19.332C119.584 19.6867 120.116 20.284 120.415 21.124C120.732 21.9453 120.891 23.056 120.891 24.456C120.891 25.7813 120.76 26.8267 120.499 27.592C120.238 28.3387 119.846 28.8987 119.323 29.272C118.8 29.6267 118.138 29.86 117.335 29.972C116.551 30.0653 115.636 30.112 114.591 30.112ZM114.619 28.264C115.403 28.264 115.991 28.18 116.383 28.012C116.794 27.8253 117.074 27.452 117.223 26.892C117.391 26.332 117.475 25.4733 117.475 24.316C117.475 23.3827 117.382 22.6547 117.195 22.132C117.008 21.6093 116.71 21.236 116.299 21.012C115.907 20.788 115.375 20.676 114.703 20.676C114.516 20.676 114.292 20.676 114.031 20.676C113.77 20.676 113.508 20.6853 113.247 20.704C112.986 20.704 112.752 20.7133 112.547 20.732C112.36 20.732 112.23 20.732 112.155 20.732V25.044C112.155 25.7347 112.183 26.2947 112.239 26.724C112.295 27.1533 112.407 27.48 112.575 27.704C112.743 27.928 112.986 28.0773 113.303 28.152C113.639 28.2267 114.078 28.264 114.619 28.264ZM130.259 30.168C129.269 30.168 128.392 30.1027 127.627 29.972C126.861 29.8227 126.208 29.552 125.667 29.16C125.144 28.7493 124.743 28.1613 124.463 27.396C124.183 26.6307 124.043 25.6413 124.043 24.428C124.043 23.2147 124.183 22.2253 124.463 21.46C124.743 20.6947 125.144 20.116 125.667 19.724C126.208 19.3133 126.861 19.0427 127.627 18.912C128.392 18.7627 129.269 18.688 130.259 18.688C131.267 18.688 132.144 18.7627 132.891 18.912C133.656 19.0427 134.3 19.3133 134.823 19.724C135.345 20.116 135.737 20.6947 135.999 21.46C136.279 22.2253 136.419 23.2147 136.419 24.428C136.419 25.66 136.279 26.6587 135.999 27.424C135.737 28.1707 135.345 28.7493 134.823 29.16C134.3 29.552 133.656 29.8227 132.891 29.972C132.125 30.1027 131.248 30.168 130.259 30.168ZM130.259 28.46C130.856 28.46 131.351 28.3573 131.743 28.152C132.153 27.9467 132.461 27.5547 132.667 26.976C132.872 26.3973 132.975 25.548 132.975 24.428C132.975 23.308 132.872 22.4587 132.667 21.88C132.461 21.3013 132.153 20.9093 131.743 20.704C131.351 20.4987 130.856 20.396 130.259 20.396C129.68 20.396 129.185 20.4987 128.775 20.704C128.364 20.9093 128.047 21.3013 127.823 21.88C127.599 22.4587 127.487 23.308 127.487 24.428C127.487 25.548 127.599 26.3973 127.823 26.976C128.047 27.5547 128.364 27.9467 128.775 28.152C129.185 28.3573 129.68 28.46 130.259 28.46ZM143.381 30H141.001C140.646 30 140.385 29.916 140.217 29.748C140.049 29.5613 139.965 29.2067 139.965 28.684V19.388C140.45 19.2573 141.141 19.1173 142.037 18.968C142.952 18.8187 143.997 18.744 145.173 18.744C146.386 18.744 147.338 18.8187 148.029 18.968C148.72 19.1173 149.224 19.332 149.541 19.612C149.877 19.892 150.092 20.2467 150.185 20.676C150.278 21.1053 150.325 21.6187 150.325 22.216H147.077V21.824C147.058 21.376 146.956 21.0493 146.769 20.844C146.582 20.6387 146.349 20.5173 146.069 20.48C145.789 20.424 145.509 20.396 145.229 20.396C144.818 20.396 144.445 20.4427 144.109 20.536C143.792 20.6107 143.549 20.7227 143.381 20.872V30ZM157.282 30C156.965 30 156.694 29.9627 156.47 29.888C156.246 29.8133 156.05 29.6733 155.882 29.468C155.714 29.2627 155.546 28.9547 155.378 28.544L151.822 18.8H155.35L157.478 25.38C157.609 25.7533 157.74 26.0147 157.87 26.164C158.02 26.3133 158.272 26.388 158.626 26.388C158.962 25.268 159.289 24.1573 159.606 23.056C159.924 21.936 160.25 20.8253 160.586 19.724C160.68 19.444 160.81 19.2293 160.978 19.08C161.146 18.912 161.408 18.828 161.762 18.828H163.106L159.13 30H157.282ZM168.741 30.112C167.64 30.112 166.875 29.8787 166.445 29.412C166.035 28.9267 165.829 28.1707 165.829 27.144V18.828H169.245V26.976C169.245 27.6293 169.329 28.0867 169.497 28.348C169.665 28.5907 169.964 28.712 170.393 28.712C170.599 28.712 170.795 28.6933 170.981 28.656C171.168 28.6187 171.289 28.5907 171.345 28.572V29.86C171.271 29.8787 171.14 29.9067 170.953 29.944C170.767 29.9813 170.496 30.0187 170.141 30.056C169.787 30.0933 169.32 30.112 168.741 30.112ZM167.565 17.372C167.024 17.372 166.632 17.3067 166.389 17.176C166.147 17.0267 166.025 16.756 166.025 16.364C166.025 15.972 166.147 15.7013 166.389 15.552C166.651 15.4027 167.052 15.328 167.593 15.328C168.135 15.3467 168.517 15.4307 168.741 15.58C168.984 15.7107 169.096 15.972 169.077 16.364C169.077 16.756 168.965 17.0267 168.741 17.176C168.517 17.3067 168.125 17.372 167.565 17.372ZM179.802 30.168C178.57 30.168 177.553 30.0933 176.75 29.944C175.948 29.776 175.313 29.496 174.846 29.104C174.38 28.712 174.044 28.152 173.838 27.424C173.633 26.696 173.53 25.7627 173.53 24.624C173.53 23.2053 173.717 22.0667 174.09 21.208C174.482 20.3493 175.154 19.724 176.106 19.332C177.077 18.94 178.421 18.744 180.138 18.744C181.482 18.744 182.556 18.8933 183.358 19.192C184.161 19.4907 184.74 19.9667 185.094 20.62C185.449 21.2547 185.626 22.076 185.626 23.084V25.044H177.786C177.786 24.708 177.861 24.428 178.01 24.204C178.178 23.9613 178.468 23.84 178.878 23.84H182.574V23.168C182.556 22.272 182.36 21.6093 181.986 21.18C181.632 20.7507 180.978 20.536 180.026 20.536C179.224 20.536 178.598 20.6573 178.15 20.9C177.721 21.1427 177.413 21.5533 177.226 22.132C177.058 22.7107 176.974 23.5227 176.974 24.568C176.974 25.576 177.077 26.3413 177.282 26.864C177.488 27.3867 177.842 27.7413 178.346 27.928C178.869 28.096 179.588 28.18 180.502 28.18C180.838 28.18 181.258 28.1707 181.762 28.152C182.285 28.1333 182.808 28.1147 183.33 28.096C183.872 28.0587 184.348 28.0213 184.758 27.984C185.169 27.928 185.43 27.8813 185.543 27.844V28.292C185.543 28.516 185.496 28.7587 185.402 29.02C185.328 29.2627 185.15 29.4587 184.87 29.608C184.516 29.832 183.918 29.9813 183.078 30.056C182.257 30.1307 181.165 30.168 179.802 30.168ZM193.496 30.14C192.376 30.14 191.462 30.0467 190.752 29.86C190.062 29.6733 189.548 29.3 189.212 28.74C188.895 28.18 188.736 27.3493 188.736 26.248V20.228C188.736 19.668 188.811 19.2947 188.96 19.108C189.128 18.9213 189.446 18.828 189.912 18.828H192.152V26.248C192.152 27.0507 192.302 27.5733 192.6 27.816C192.918 28.0587 193.394 28.18 194.028 28.18C194.719 28.18 195.214 28.0587 195.512 27.816C195.83 27.5547 195.988 27.1253 195.988 26.528V18.828H199.404V26.528C199.404 27.1253 199.554 27.5547 199.852 27.816C200.17 28.0587 200.655 28.18 201.308 28.18C201.999 28.18 202.494 28.0587 202.792 27.816C203.091 27.5733 203.24 27.0507 203.24 26.248V18.828H205.396C205.919 18.828 206.255 18.9213 206.404 19.108C206.554 19.276 206.628 19.6493 206.628 20.228V26.248C206.628 27.312 206.47 28.124 206.152 28.684C205.835 29.2253 205.312 29.5987 204.584 29.804C203.875 30.0093 202.914 30.112 201.7 30.112C200.487 30.112 199.516 29.9253 198.788 29.552C198.079 29.16 197.65 28.516 197.5 27.62H197.892C197.762 28.2547 197.528 28.7587 197.192 29.132C196.856 29.4867 196.38 29.748 195.764 29.916C195.167 30.0653 194.411 30.14 193.496 30.14Z" fill="#5CD85A"/>
</svg>
