<svg width="48" height="45" viewBox="0 0 48 45" fill="none" xmlns="http://www.w3.org/2000/svg">
<path d="M1.96682 6.18006C0.305784 8.85121 0.0419172 12.3451 0 18.5516H5.47872C5.51638 17.2991 5.6009 16.3912 5.79052 15.578C6.92273 10.7222 10.7142 6.93065 15.57 5.79843C17.0372 5.45635 18.8125 5.45635 22.3631 5.45635H25.6369C29.1875 5.45635 30.9628 5.45635 32.43 5.79843C37.2858 6.93065 41.0773 10.7222 42.2095 15.578C42.3991 16.3912 42.4836 17.2991 42.5213 18.5516H48C47.9581 12.3451 47.6942 8.85121 46.0332 6.18006C44.9725 4.47431 43.5336 3.03543 41.8279 1.97473C38.6522 0 34.3138 0 25.6369 0H22.3631C13.6862 0 9.34777 0 6.17214 1.97473C4.4664 3.03543 3.02752 4.47431 1.96682 6.18006Z" fill="#5CD85A"/>
<path d="M1.96682 38.562C0.305784 35.8908 0.0419172 32.3969 0 26.1905H5.47872C5.51638 27.4429 5.6009 28.3508 5.79052 29.1641C6.92273 34.0199 10.7142 37.8114 15.57 38.9436C17.0372 39.2857 18.8125 39.2857 22.3631 39.2857H25.6369C29.1875 39.2857 30.9628 39.2857 32.43 38.9436C37.2858 37.8114 41.0773 34.0199 42.2095 29.1641C42.3991 28.3508 42.4836 27.4429 42.5213 26.1905H48C47.9581 32.3969 47.6942 35.8908 46.0332 38.562C44.9725 40.2677 43.5336 41.7066 41.8279 42.7673C38.6522 44.742 34.3138 44.742 25.6369 44.742H22.3631C13.6862 44.742 9.34777 44.742 6.17214 42.7673C4.4664 41.7066 3.02752 40.2677 1.96682 38.562Z" fill="#5CD85A"/>
<path fill-rule="evenodd" clip-rule="evenodd" d="M22.545 32.7381V26.8324L17.6796 27.3261L18.5911 28.4051L16.1239 27.9878L18.5911 30.9086L14.4791 30.4913V33.8293H12.8343V30.4913L8.72223 30.9086L11.1895 27.9878L8.72223 28.4051L11.1895 25.4843L8.72223 25.9016C10.9817 23.6353 12.0857 22.2774 13.6567 19.6428C14.3754 20.8668 14.9943 21.8129 15.6589 22.6808L19.6349 17.9738L15.2698 18.7121C19.2673 14.7025 21.2206 12.2999 24 7.63888C26.8366 12.4693 28.794 14.8532 32.7302 18.7121L28.3651 17.9738L32.3517 22.6933C33.0384 21.8053 33.6647 20.8604 34.3908 19.6428C35.994 22.3731 37.1004 23.7205 39.3252 25.9016L36.858 25.4843L39.3252 28.4051L36.858 27.9878L39.3252 30.9086L35.2132 30.4913V33.8293H33.5684V30.4913L29.4563 30.9086L31.9236 27.9878L29.4563 28.4051L30.3641 27.3305L25.455 26.8324V32.7381H22.545ZM31.4457 26.05L31.9236 25.4843L31.0873 25.6258L31.4457 26.05ZM30.4556 24.8779C31.0723 24.2293 31.5977 23.6377 32.0845 23.0321L28.3651 22.4031L30.4556 24.8779ZM16.9186 25.6187L16.578 26.022L16.1239 25.4843L16.9186 25.6187ZM19.6349 22.4031L17.5572 24.8628C16.9451 24.2284 16.4214 23.6422 15.9317 23.0294L19.6349 22.4031Z" fill="#5CD85A"/>
</svg>
