<svg width="24" height="24" viewBox="0 0 24 24" fill="none" xmlns="http://www.w3.org/2000/svg">
<g clip-path="url(#clip0_421_501)">
<path d="M12.0049 6.08949C8.7359 6.08949 6.09908 8.7263 6.09908 11.9953C6.09908 15.2644 8.7359 17.9012 12.0049 17.9012C15.274 17.9012 17.9108 15.2644 17.9108 11.9953C17.9108 8.7263 15.274 6.08949 12.0049 6.08949ZM12.0049 15.8349C9.8924 15.8349 8.16536 14.113 8.16536 11.9953C8.16536 9.87766 9.88726 8.15576 12.0049 8.15576C14.1226 8.15576 15.8445 9.87766 15.8445 11.9953C15.8445 14.113 14.1175 15.8349 12.0049 15.8349ZM19.5299 5.84791C19.5299 6.61377 18.9131 7.22543 18.1524 7.22543C17.3865 7.22543 16.7748 6.60863 16.7748 5.84791C16.7748 5.08719 17.3916 4.47039 18.1524 4.47039C18.9131 4.47039 19.5299 5.08719 19.5299 5.84791ZM23.4414 7.24599C23.354 5.40073 22.9325 3.76621 21.5807 2.41954C20.2341 1.07286 18.5995 0.65138 16.7543 0.55886C14.8525 0.45092 9.15224 0.45092 7.25044 0.55886C5.41033 0.64624 3.77581 1.06772 2.42399 2.4144C1.07217 3.76107 0.655835 5.39559 0.563316 7.24085C0.455376 9.14264 0.455376 14.8429 0.563316 16.7447C0.650695 18.5899 1.07217 20.2245 2.42399 21.5711C3.77581 22.9178 5.40519 23.3393 7.25044 23.4318C9.15224 23.5398 14.8525 23.5398 16.7543 23.4318C18.5995 23.3444 20.2341 22.923 21.5807 21.5711C22.9274 20.2245 23.3489 18.5899 23.4414 16.7447C23.5493 14.8429 23.5493 9.14778 23.4414 7.24599ZM20.9845 18.7853C20.5836 19.7927 19.8074 20.5688 18.7949 20.9749C17.2786 21.5763 13.6806 21.4375 12.0049 21.4375C10.3293 21.4375 6.72616 21.5711 5.21501 20.9749C4.20757 20.574 3.43143 19.7978 3.02537 18.7853C2.42399 17.269 2.56277 13.671 2.56277 11.9953C2.56277 10.3197 2.42913 6.71657 3.02537 5.20541C3.42629 4.19797 4.20243 3.42183 5.21501 3.01577C6.7313 2.4144 10.3293 2.55318 12.0049 2.55318C13.6806 2.55318 17.2837 2.41954 18.7949 3.01577C19.8023 3.41669 20.5784 4.19283 20.9845 5.20541C21.5859 6.72171 21.4471 10.3197 21.4471 11.9953C21.4471 13.671 21.5859 17.2741 20.9845 18.7853Z" fill="#5CD85A"/>
</g>
<defs>
<clipPath id="clip0_421_501">
<rect width="24" height="24" fill="white"/>
</clipPath>
</defs>
</svg>
