<svg width="24" height="24" viewBox="0 0 24 24" fill="none" xmlns="http://www.w3.org/2000/svg">
<path d="M2 2.5C2 2.22386 2.22386 2 2.5 2H21.5C21.7761 2 22 2.22386 22 2.5C22 2.77614 21.7761 3 21.5 3L2.5 3C2.22386 3 2 2.77614 2 2.5Z" fill="#F2F2F2"/>
<path d="M2 21.5C2 21.2239 2.22386 21 2.5 21L21.5 21C21.7761 21 22 21.2239 22 21.5C22 21.7761 21.7761 22 21.5 22L2.5 22C2.22386 22 2 21.7761 2 21.5Z" fill="#F2F2F2"/>
<path d="M2.5 11.52C2.22386 11.52 2 11.7439 2 12.02C2 12.2962 2.22386 12.52 2.5 12.52L21.5 12.52C21.7761 12.52 22 12.2962 22 12.02C22 11.7439 21.7761 11.52 21.5 11.52L2.5 11.52Z" fill="#F2F2F2"/>
</svg>
