<svg width="25" height="24" viewBox="0 0 25 24" fill="none" xmlns="http://www.w3.org/2000/svg">
<path d="M24.4386 6.51304C24.1626 5.47374 23.3493 4.65521 22.3167 4.37744C20.4451 3.87268 12.9401 3.87268 12.9401 3.87268C12.9401 3.87268 5.43512 3.87268 3.56345 4.37744C2.53087 4.65526 1.71762 5.47374 1.4416 6.51304C0.940094 8.39684 0.940094 12.3272 0.940094 12.3272C0.940094 12.3272 0.940094 16.2576 1.4416 18.1414C1.71762 19.1807 2.53087 19.9651 3.56345 20.2429C5.43512 20.7477 12.9401 20.7477 12.9401 20.7477C12.9401 20.7477 20.4451 20.7477 22.3167 20.2429C23.3493 19.9651 24.1626 19.1807 24.4386 18.1414C24.9401 16.2576 24.9401 12.3272 24.9401 12.3272C24.9401 12.3272 24.9401 8.39684 24.4386 6.51304ZM10.4855 15.8957V8.75873L16.7582 12.3273L10.4855 15.8957Z" fill="#5CD85A"/>
</svg>
